M48
; DRILL file {KiCad 8.0.5} date 2024-12-22T15:26:15+1100
; FORMAT={-:-/ absolute / inch / decimal}
; #@! TF.CreationDate,2024-12-22T15:26:15+11:00
; #@! TF.GenerationSoftware,Kicad,Pcbnew,8.0.5
; #@! TF.FileFunction,Plated,1,2,PTH
FMAT,2
INCH
; #@! TA.AperFunction,Plated,PTH,ViaDrill
T1C0.0059
; #@! TA.AperFunction,Plated,PTH,ComponentDrill
T2C0.0197
; #@! TA.AperFunction,Plated,PTH,ViaDrill
T3C0.0787
%
G90
G05
T1
X5.5335Y-4.2461
X5.5335Y-4.3524
X5.5472Y-4.1772
X5.5472Y-4.2126
X5.5669Y-4.4094
X5.6358Y-4.2146
X5.6555Y-4.1772
X5.6634Y-4.3445
X5.689Y-4.185
X5.7126Y-4.2657
X5.7392Y-4.2667
X5.7402Y-4.3209
X5.7402Y-4.3484
X5.7539Y-4.376
X5.7913Y-4.3484
T2
X5.8268Y-4.2323
X5.8268Y-4.2717
X5.8268Y-4.311
X5.8268Y-4.3504
T3
X5.4331Y-4.0551
X5.4331Y-4.5276
X5.9055Y-4.0551
X5.9055Y-4.5276
M30
