%TF.GenerationSoftware,KiCad,Pcbnew,8.0.5*%
%TF.CreationDate,2024-12-23T12:59:27+11:00*%
%TF.ProjectId,Sensored,53656e73-6f72-4656-942e-6b696361645f,rev?*%
%TF.SameCoordinates,Original*%
%TF.FileFunction,Copper,L2,Bot*%
%TF.FilePolarity,Positive*%
%FSLAX46Y46*%
G04 Gerber Fmt 4.6, Leading zero omitted, Abs format (unit mm)*
G04 Created by KiCad (PCBNEW 8.0.5) date 2024-12-23 12:59:27*
%MOMM*%
%LPD*%
G01*
G04 APERTURE LIST*
G04 Aperture macros list*
%AMRoundRect*
0 Rectangle with rounded corners*
0 $1 Rounding radius*
0 $2 $3 $4 $5 $6 $7 $8 $9 X,Y pos of 4 corners*
0 Add a 4 corners polygon primitive as box body*
4,1,4,$2,$3,$4,$5,$6,$7,$8,$9,$2,$3,0*
0 Add four circle primitives for the rounded corners*
1,1,$1+$1,$2,$3*
1,1,$1+$1,$4,$5*
1,1,$1+$1,$6,$7*
1,1,$1+$1,$8,$9*
0 Add four rect primitives between the rounded corners*
20,1,$1+$1,$2,$3,$4,$5,0*
20,1,$1+$1,$4,$5,$6,$7,0*
20,1,$1+$1,$6,$7,$8,$9,0*
20,1,$1+$1,$8,$9,$2,$3,0*%
G04 Aperture macros list end*
%TA.AperFunction,ComponentPad*%
%ADD10C,0.800000*%
%TD*%
%TA.AperFunction,SMDPad,CuDef*%
%ADD11RoundRect,0.200000X0.200000X0.200000X-0.200000X0.200000X-0.200000X-0.200000X0.200000X-0.200000X0*%
%TD*%
%TA.AperFunction,ViaPad*%
%ADD12C,2.500000*%
%TD*%
%TA.AperFunction,ViaPad*%
%ADD13C,0.400000*%
%TD*%
%TA.AperFunction,Conductor*%
%ADD14C,0.160000*%
%TD*%
G04 APERTURE END LIST*
D10*
%TO.P,J1,1,Pin_1*%
%TO.N,+3V3*%
X148000000Y-107499999D03*
%TO.P,J1,2,Pin_2*%
%TO.N,SDA*%
X148000000Y-108499999D03*
%TO.P,J1,3,Pin_3*%
%TO.N,SCL*%
X148000000Y-109500000D03*
%TO.P,J1,4,Pin_4*%
%TO.N,GND*%
X148000000Y-110499999D03*
%TD*%
D11*
%TO.P,J2,1,Pin_1*%
%TO.N,GND*%
X143000000Y-110000000D03*
X144000000Y-110000000D03*
X145000000Y-110000000D03*
X143000000Y-109000000D03*
X144000000Y-109000000D03*
X145000000Y-109000000D03*
X143000000Y-108000000D03*
X144000000Y-108000000D03*
X145000000Y-108000000D03*
%TD*%
D12*
%TO.N,*%
X138000000Y-103000000D03*
X150000000Y-115000000D03*
X150000000Y-103000000D03*
X138000000Y-115000000D03*
D13*
%TO.N,GND*%
X143127500Y-107052500D03*
X140900000Y-106100000D03*
X140550000Y-107850000D03*
X140900000Y-107000000D03*
X146150000Y-111150000D03*
X141400000Y-112000000D03*
X143850000Y-110350000D03*
X145000000Y-108000000D03*
X145800000Y-110450000D03*
X147100000Y-110450000D03*
X144500000Y-106300000D03*
X140550000Y-110550000D03*
X143650000Y-106100000D03*
%TO.N,+3V3*%
X145800000Y-109750000D03*
X145775000Y-108375000D03*
%TD*%
D14*
%TO.N,GND*%
X148000000Y-110499999D02*
X147149999Y-110499999D01*
X147149999Y-110499999D02*
X147100000Y-110450000D01*
%TO.N,+3V3*%
X145775000Y-109725000D02*
X145775000Y-108375000D01*
X145800000Y-109750000D02*
X145775000Y-109725000D01*
%TD*%
%TA.AperFunction,Conductor*%
%TO.N,GND*%
G36*
X143462261Y-105500996D02*
G01*
X143475331Y-105502469D01*
X143499998Y-105505249D01*
X143500000Y-105505249D01*
X143500002Y-105505249D01*
X143524668Y-105502469D01*
X143537738Y-105500996D01*
X143546582Y-105500500D01*
X144453418Y-105500500D01*
X144462261Y-105500996D01*
X144475331Y-105502469D01*
X144499998Y-105505249D01*
X144500000Y-105505249D01*
X144500002Y-105505249D01*
X144524668Y-105502469D01*
X144537738Y-105500996D01*
X144546582Y-105500500D01*
X145421119Y-105500500D01*
X145434108Y-105500500D01*
X146434108Y-105500500D01*
X146496555Y-105500500D01*
X146503440Y-105500801D01*
X146512459Y-105501590D01*
X146666681Y-105515083D01*
X146680230Y-105517471D01*
X146835177Y-105558989D01*
X146848107Y-105563695D01*
X146993488Y-105631488D01*
X147005405Y-105638367D01*
X147136808Y-105730377D01*
X147147356Y-105739229D01*
X147260770Y-105852643D01*
X147269622Y-105863191D01*
X147361629Y-105994590D01*
X147368514Y-106006516D01*
X147436302Y-106151887D01*
X147441012Y-106164828D01*
X147482526Y-106319763D01*
X147484917Y-106333323D01*
X147499199Y-106496558D01*
X147499500Y-106503444D01*
X147499500Y-107227941D01*
X147493486Y-107258173D01*
X147453928Y-107353672D01*
X147453925Y-107353681D01*
X147434663Y-107499998D01*
X147434663Y-107499999D01*
X147453925Y-107646316D01*
X147453927Y-107646322D01*
X147493486Y-107741823D01*
X147499500Y-107772056D01*
X147499500Y-108227941D01*
X147493486Y-108258173D01*
X147453928Y-108353672D01*
X147453925Y-108353681D01*
X147434663Y-108499998D01*
X147434663Y-108499999D01*
X147453925Y-108646316D01*
X147453927Y-108646322D01*
X147453979Y-108646447D01*
X147490085Y-108733614D01*
X147493486Y-108741823D01*
X147499500Y-108772056D01*
X147499500Y-109227942D01*
X147493486Y-109258174D01*
X147453928Y-109353673D01*
X147453925Y-109353682D01*
X147434663Y-109499999D01*
X147434663Y-109500000D01*
X147453925Y-109646317D01*
X147453927Y-109646323D01*
X147493486Y-109741824D01*
X147499500Y-109772057D01*
X147499500Y-110162330D01*
X147481018Y-110213110D01*
X147434218Y-110240130D01*
X147381000Y-110230746D01*
X147364639Y-110218191D01*
X147211744Y-110065296D01*
X147173283Y-110131915D01*
X147173279Y-110131924D01*
X147114819Y-110311842D01*
X147114818Y-110311847D01*
X147095043Y-110499997D01*
X147095043Y-110500000D01*
X147114818Y-110688150D01*
X147114819Y-110688155D01*
X147173279Y-110868073D01*
X147173281Y-110868077D01*
X147211744Y-110934699D01*
X147364639Y-110781806D01*
X147413615Y-110758969D01*
X147465813Y-110772955D01*
X147496808Y-110817222D01*
X147499500Y-110837668D01*
X147499500Y-111496555D01*
X147499199Y-111503441D01*
X147484917Y-111666676D01*
X147482526Y-111680236D01*
X147441012Y-111835171D01*
X147436302Y-111848112D01*
X147368514Y-111993483D01*
X147361629Y-112005409D01*
X147269622Y-112136808D01*
X147260770Y-112147356D01*
X147147356Y-112260770D01*
X147136808Y-112269622D01*
X147005409Y-112361629D01*
X146993483Y-112368514D01*
X146848112Y-112436302D01*
X146835171Y-112441012D01*
X146680236Y-112482526D01*
X146666676Y-112484917D01*
X146524682Y-112497340D01*
X146503439Y-112499199D01*
X146496555Y-112499500D01*
X144546582Y-112499500D01*
X144537738Y-112499003D01*
X144524668Y-112497530D01*
X144500002Y-112494751D01*
X144499998Y-112494751D01*
X144475331Y-112497530D01*
X144462261Y-112499003D01*
X144453418Y-112499500D01*
X143546582Y-112499500D01*
X143537738Y-112499003D01*
X143524668Y-112497530D01*
X143500002Y-112494751D01*
X143499998Y-112494751D01*
X143475331Y-112497530D01*
X143462261Y-112499003D01*
X143453418Y-112499500D01*
X141503445Y-112499500D01*
X141496560Y-112499199D01*
X141469900Y-112496866D01*
X141333323Y-112484917D01*
X141319763Y-112482526D01*
X141164828Y-112441012D01*
X141151887Y-112436302D01*
X141006516Y-112368514D01*
X140994590Y-112361629D01*
X140863191Y-112269622D01*
X140852643Y-112260770D01*
X140739229Y-112147356D01*
X140730377Y-112136808D01*
X140638370Y-112005409D01*
X140631488Y-111993488D01*
X140563695Y-111848107D01*
X140558989Y-111835177D01*
X140517471Y-111680230D01*
X140515083Y-111666681D01*
X140500801Y-111503440D01*
X140500500Y-111496555D01*
X140500500Y-110842993D01*
X142510559Y-110842993D01*
X142510601Y-110843018D01*
X142510603Y-110843019D01*
X142672894Y-110893591D01*
X142743425Y-110899999D01*
X143256575Y-110899999D01*
X143327101Y-110893591D01*
X143327109Y-110893589D01*
X143476497Y-110847038D01*
X143523503Y-110847038D01*
X143672894Y-110893591D01*
X143743425Y-110899999D01*
X144256575Y-110899999D01*
X144327101Y-110893591D01*
X144327109Y-110893589D01*
X144476497Y-110847038D01*
X144523503Y-110847038D01*
X144672894Y-110893591D01*
X144743425Y-110899999D01*
X145256575Y-110899999D01*
X145327101Y-110893591D01*
X145327109Y-110893589D01*
X145489396Y-110843018D01*
X145489398Y-110843017D01*
X145489439Y-110842992D01*
X144548604Y-109902157D01*
X144548603Y-109902157D01*
X144500000Y-109853553D01*
X144451397Y-109902157D01*
X144451396Y-109902157D01*
X144055861Y-110297692D01*
X144006885Y-110320530D01*
X143954687Y-110306544D01*
X143944139Y-110297692D01*
X143548604Y-109902157D01*
X143548603Y-109902157D01*
X143500000Y-109853553D01*
X143451397Y-109902157D01*
X143451396Y-109902157D01*
X143000000Y-110353553D01*
X142510559Y-110842993D01*
X140500500Y-110842993D01*
X140500500Y-107743425D01*
X142100000Y-107743425D01*
X142100000Y-108256575D01*
X142106408Y-108327101D01*
X142106410Y-108327109D01*
X142152962Y-108476497D01*
X142152962Y-108523503D01*
X142106408Y-108672894D01*
X142100000Y-108743425D01*
X142100000Y-109256575D01*
X142106408Y-109327101D01*
X142106410Y-109327109D01*
X142152962Y-109476497D01*
X142152962Y-109523503D01*
X142106408Y-109672894D01*
X142100000Y-109743425D01*
X142100000Y-110256575D01*
X142106408Y-110327101D01*
X142106410Y-110327109D01*
X142156981Y-110489398D01*
X142157005Y-110489439D01*
X142157007Y-110489439D01*
X143000000Y-109646447D01*
X143000000Y-109646446D01*
X143146447Y-109499999D01*
X143853553Y-109499999D01*
X143853553Y-109500001D01*
X143999999Y-109646447D01*
X144000001Y-109646447D01*
X144146447Y-109500001D01*
X144146447Y-109499999D01*
X144000001Y-109353553D01*
X143999999Y-109353553D01*
X143853553Y-109499999D01*
X143146447Y-109499999D01*
X142702308Y-109055860D01*
X142679470Y-109006884D01*
X142681315Y-109000000D01*
X143353553Y-109000000D01*
X143451396Y-109097842D01*
X143500000Y-109146446D01*
X143646446Y-109000000D01*
X144353553Y-109000000D01*
X144451396Y-109097842D01*
X144500000Y-109146446D01*
X144646446Y-109000000D01*
X144548603Y-108902157D01*
X144500000Y-108853553D01*
X144451397Y-108902157D01*
X144451396Y-108902158D01*
X144353553Y-109000000D01*
X143646446Y-109000000D01*
X143548603Y-108902157D01*
X143500000Y-108853553D01*
X143451397Y-108902157D01*
X143451396Y-108902158D01*
X143353553Y-109000000D01*
X142681315Y-109000000D01*
X142693456Y-108954686D01*
X142702308Y-108944137D01*
X143000000Y-108646446D01*
X143146446Y-108500000D01*
X143146445Y-108499999D01*
X143853553Y-108499999D01*
X143853553Y-108500001D01*
X143999999Y-108646447D01*
X144000001Y-108646447D01*
X144146447Y-108500001D01*
X144146447Y-108500000D01*
X144853553Y-108500000D01*
X145000000Y-108646446D01*
X145000000Y-108646447D01*
X145297691Y-108944138D01*
X145320529Y-108993114D01*
X145306543Y-109045312D01*
X145297691Y-109055860D01*
X144853553Y-109499998D01*
X144853553Y-109499999D01*
X145000000Y-109646446D01*
X145000000Y-109646447D01*
X145842992Y-110489439D01*
X145843017Y-110489398D01*
X145843018Y-110489396D01*
X145893591Y-110327105D01*
X145899999Y-110256575D01*
X145899999Y-110208175D01*
X145918480Y-110157394D01*
X145943128Y-110137787D01*
X146044294Y-110086241D01*
X146136241Y-109994294D01*
X146195275Y-109878433D01*
X146200783Y-109843655D01*
X146215617Y-109750002D01*
X146215617Y-109749997D01*
X146195276Y-109621573D01*
X146195275Y-109621572D01*
X146195275Y-109621567D01*
X146136241Y-109505706D01*
X146136240Y-109505705D01*
X146136239Y-109505703D01*
X146039898Y-109409362D01*
X146041898Y-109407361D01*
X146017844Y-109371687D01*
X146015500Y-109352586D01*
X146015500Y-108733614D01*
X146033982Y-108682834D01*
X146038628Y-108677763D01*
X146103050Y-108613342D01*
X146160646Y-108500304D01*
X146170569Y-108437652D01*
X146180492Y-108375002D01*
X146180492Y-108374997D01*
X146165607Y-108281022D01*
X146160646Y-108249696D01*
X146160645Y-108249695D01*
X146160645Y-108249693D01*
X146103051Y-108136659D01*
X146103049Y-108136656D01*
X146013343Y-108046950D01*
X145943133Y-108011176D01*
X145906279Y-107971654D01*
X145899999Y-107940787D01*
X145899999Y-107743424D01*
X145893591Y-107672898D01*
X145893589Y-107672890D01*
X145843019Y-107510603D01*
X145843018Y-107510601D01*
X145842992Y-107510558D01*
X145000000Y-108353553D01*
X145000000Y-108353554D01*
X144853553Y-108500000D01*
X144146447Y-108500000D01*
X144146447Y-108499999D01*
X144000001Y-108353553D01*
X143999999Y-108353553D01*
X143853553Y-108499999D01*
X143146445Y-108499999D01*
X143000000Y-108353554D01*
X143000000Y-108353553D01*
X142157006Y-107510559D01*
X142156984Y-107510597D01*
X142156981Y-107510603D01*
X142106408Y-107672894D01*
X142100000Y-107743425D01*
X140500500Y-107743425D01*
X140500500Y-107157006D01*
X142510559Y-107157006D01*
X143451396Y-108097843D01*
X143451397Y-108097843D01*
X143500000Y-108146446D01*
X143548603Y-108097843D01*
X143548604Y-108097843D01*
X143944139Y-107702308D01*
X143993115Y-107679470D01*
X144045313Y-107693456D01*
X144055861Y-107702308D01*
X144451396Y-108097843D01*
X144451397Y-108097843D01*
X144500000Y-108146446D01*
X144548603Y-108097843D01*
X144548604Y-108097843D01*
X145000000Y-107646447D01*
X145489439Y-107157006D01*
X145489439Y-107157005D01*
X145489398Y-107156981D01*
X145327105Y-107106408D01*
X145256574Y-107100000D01*
X144743424Y-107100000D01*
X144672898Y-107106408D01*
X144672890Y-107106410D01*
X144523503Y-107152962D01*
X144476497Y-107152962D01*
X144327105Y-107106408D01*
X144256574Y-107100000D01*
X143743424Y-107100000D01*
X143672898Y-107106408D01*
X143672890Y-107106410D01*
X143523503Y-107152962D01*
X143476497Y-107152962D01*
X143327105Y-107106408D01*
X143256574Y-107100000D01*
X142743424Y-107100000D01*
X142672898Y-107106408D01*
X142672890Y-107106410D01*
X142510603Y-107156981D01*
X142510597Y-107156984D01*
X142510559Y-107157006D01*
X140500500Y-107157006D01*
X140500500Y-106503444D01*
X140500801Y-106496559D01*
X140513733Y-106348748D01*
X140515083Y-106333316D01*
X140517471Y-106319771D01*
X140558990Y-106164818D01*
X140563693Y-106151896D01*
X140631490Y-106006506D01*
X140638364Y-105994599D01*
X140730382Y-105863184D01*
X140739223Y-105852649D01*
X140852649Y-105739223D01*
X140863184Y-105730382D01*
X140994599Y-105638364D01*
X141006506Y-105631490D01*
X141151896Y-105563693D01*
X141164818Y-105558990D01*
X141319771Y-105517471D01*
X141333316Y-105515083D01*
X141488741Y-105501484D01*
X141496560Y-105500801D01*
X141503445Y-105500500D01*
X141565892Y-105500500D01*
X142434108Y-105500500D01*
X142500000Y-105500500D01*
X142578881Y-105500500D01*
X143453418Y-105500500D01*
X143462261Y-105500996D01*
G37*
%TD.AperFunction*%
%TD*%
M02*
