%TF.GenerationSoftware,KiCad,Pcbnew,8.0.5*%
%TF.CreationDate,2024-12-23T12:59:27+11:00*%
%TF.ProjectId,Sensored,53656e73-6f72-4656-942e-6b696361645f,rev?*%
%TF.SameCoordinates,Original*%
%TF.FileFunction,Copper,L1,Top*%
%TF.FilePolarity,Positive*%
%FSLAX46Y46*%
G04 Gerber Fmt 4.6, Leading zero omitted, Abs format (unit mm)*
G04 Created by KiCad (PCBNEW 8.0.5) date 2024-12-23 12:59:27*
%MOMM*%
%LPD*%
G01*
G04 APERTURE LIST*
G04 Aperture macros list*
%AMRoundRect*
0 Rectangle with rounded corners*
0 $1 Rounding radius*
0 $2 $3 $4 $5 $6 $7 $8 $9 X,Y pos of 4 corners*
0 Add a 4 corners polygon primitive as box body*
4,1,4,$2,$3,$4,$5,$6,$7,$8,$9,$2,$3,0*
0 Add four circle primitives for the rounded corners*
1,1,$1+$1,$2,$3*
1,1,$1+$1,$4,$5*
1,1,$1+$1,$6,$7*
1,1,$1+$1,$8,$9*
0 Add four rect primitives between the rounded corners*
20,1,$1+$1,$2,$3,$4,$5,0*
20,1,$1+$1,$4,$5,$6,$7,0*
20,1,$1+$1,$6,$7,$8,$9,0*
20,1,$1+$1,$8,$9,$2,$3,0*%
%AMRotRect*
0 Rectangle, with rotation*
0 The origin of the aperture is its center*
0 $1 length*
0 $2 width*
0 $3 Rotation angle, in degrees counterclockwise*
0 Add horizontal line*
21,1,$1,$2,0,0,$3*%
%AMFreePoly0*
4,1,5,0.110000,-0.125000,-0.110000,-0.125000,-0.110000,0.125000,0.360000,0.125000,0.110000,-0.125000,0.110000,-0.125000,$1*%
%AMFreePoly1*
4,1,6,0.290000,-0.055000,0.290000,-0.125000,-0.110000,-0.125000,-0.110000,0.125000,0.110000,0.125000,0.290000,-0.055000,0.290000,-0.055000,$1*%
%AMFreePoly2*
4,1,7,0.110000,-0.125000,-0.110000,-0.125000,-0.290000,-0.125000,-0.290000,-0.055000,-0.110000,0.125000,0.110000,0.125000,0.110000,-0.125000,0.110000,-0.125000,$1*%
%AMFreePoly3*
4,1,6,0.110000,-0.125000,-0.110000,-0.125000,-0.290000,0.055000,-0.290000,0.125000,0.110000,0.125000,0.110000,-0.125000,0.110000,-0.125000,$1*%
G04 Aperture macros list end*
%TA.AperFunction,SMDPad,CuDef*%
%ADD10RoundRect,0.135000X0.135000X0.185000X-0.135000X0.185000X-0.135000X-0.185000X0.135000X-0.185000X0*%
%TD*%
%TA.AperFunction,SMDPad,CuDef*%
%ADD11RoundRect,0.140000X-0.170000X0.140000X-0.170000X-0.140000X0.170000X-0.140000X0.170000X0.140000X0*%
%TD*%
%TA.AperFunction,SMDPad,CuDef*%
%ADD12R,0.350000X0.500000*%
%TD*%
%TA.AperFunction,SMDPad,CuDef*%
%ADD13RoundRect,0.140000X0.140000X0.170000X-0.140000X0.170000X-0.140000X-0.170000X0.140000X-0.170000X0*%
%TD*%
%TA.AperFunction,SMDPad,CuDef*%
%ADD14RoundRect,0.135000X-0.135000X-0.185000X0.135000X-0.185000X0.135000X0.185000X-0.135000X0.185000X0*%
%TD*%
%TA.AperFunction,ComponentPad*%
%ADD15C,0.800000*%
%TD*%
%TA.AperFunction,SMDPad,CuDef*%
%ADD16RoundRect,0.140000X-0.140000X-0.170000X0.140000X-0.170000X0.140000X0.170000X-0.140000X0.170000X0*%
%TD*%
%TA.AperFunction,SMDPad,CuDef*%
%ADD17FreePoly0,0.000000*%
%TD*%
%TA.AperFunction,SMDPad,CuDef*%
%ADD18FreePoly1,0.000000*%
%TD*%
%TA.AperFunction,SMDPad,CuDef*%
%ADD19FreePoly2,0.000000*%
%TD*%
%TA.AperFunction,SMDPad,CuDef*%
%ADD20FreePoly3,0.000000*%
%TD*%
%TA.AperFunction,SMDPad,CuDef*%
%ADD21RotRect,0.480000X0.480000X45.000000*%
%TD*%
%TA.AperFunction,SMDPad,CuDef*%
%ADD22RoundRect,0.050000X-0.050000X0.225000X-0.050000X-0.225000X0.050000X-0.225000X0.050000X0.225000X0*%
%TD*%
%TA.AperFunction,SMDPad,CuDef*%
%ADD23RoundRect,0.050000X-0.225000X-0.050000X0.225000X-0.050000X0.225000X0.050000X-0.225000X0.050000X0*%
%TD*%
%TA.AperFunction,ViaPad*%
%ADD24C,2.500000*%
%TD*%
%TA.AperFunction,ViaPad*%
%ADD25C,0.400000*%
%TD*%
%TA.AperFunction,Conductor*%
%ADD26C,0.160000*%
%TD*%
G04 APERTURE END LIST*
D10*
%TO.P,C11,1*%
%TO.N,+1V8*%
X141910000Y-106099999D03*
%TO.P,C11,2*%
%TO.N,GND*%
X140890000Y-106099999D03*
%TD*%
D11*
%TO.P,C4,1*%
%TO.N,Net-(U1-REGOUT)*%
X140549999Y-109620000D03*
%TO.P,C4,2*%
%TO.N,GND*%
X140549999Y-110580000D03*
%TD*%
D12*
%TO.P,U3,1,GND*%
%TO.N,GND*%
X145124999Y-108375000D03*
%TO.P,U3,2,CSB*%
%TO.N,+3V3*%
X145775000Y-108375000D03*
%TO.P,U3,3,SDI*%
%TO.N,SDA*%
X146425000Y-108375000D03*
%TO.P,U3,4,SCK*%
%TO.N,SCL*%
X147075001Y-108375000D03*
%TO.P,U3,5,SDO*%
%TO.N,GND*%
X147075001Y-110425000D03*
%TO.P,U3,6,VDDIO*%
%TO.N,+3V3*%
X146425000Y-110425000D03*
%TO.P,U3,7,GND*%
%TO.N,GND*%
X145775000Y-110425000D03*
%TO.P,U3,8,VDD*%
%TO.N,+3V3*%
X145124999Y-110425000D03*
%TD*%
D13*
%TO.P,C3,1*%
%TO.N,+3V3*%
X142380000Y-112000000D03*
%TO.P,C3,2*%
%TO.N,GND*%
X141420000Y-112000000D03*
%TD*%
D14*
%TO.P,R1,1*%
%TO.N,+3V3*%
X145840000Y-107500000D03*
%TO.P,R1,2*%
%TO.N,SCL*%
X146860000Y-107500000D03*
%TD*%
D11*
%TO.P,C1,1*%
%TO.N,GND*%
X140550000Y-107870000D03*
%TO.P,C1,2*%
%TO.N,+1V8*%
X140550000Y-108830000D03*
%TD*%
%TO.P,C6,1*%
%TO.N,GND*%
X144500000Y-106270000D03*
%TO.P,C6,2*%
%TO.N,+3V3*%
X144500000Y-107230000D03*
%TD*%
D15*
%TO.P,J1,1,Pin_1*%
%TO.N,+3V3*%
X148000000Y-107499999D03*
%TO.P,J1,2,Pin_2*%
%TO.N,SDA*%
X148000000Y-108499999D03*
%TO.P,J1,3,Pin_3*%
%TO.N,SCL*%
X148000000Y-109500000D03*
%TO.P,J1,4,Pin_4*%
%TO.N,GND*%
X148000000Y-110499999D03*
%TD*%
D16*
%TO.P,C8,1*%
%TO.N,+3V3*%
X145170000Y-111137500D03*
%TO.P,C8,2*%
%TO.N,GND*%
X146130000Y-111137500D03*
%TD*%
%TO.P,C13,1*%
%TO.N,+1V8*%
X142707500Y-106077500D03*
%TO.P,C13,2*%
%TO.N,GND*%
X143667500Y-106077500D03*
%TD*%
D14*
%TO.P,R2,1*%
%TO.N,+3V3*%
X145390000Y-106550000D03*
%TO.P,R2,2*%
%TO.N,SDA*%
X146410000Y-106550000D03*
%TD*%
D17*
%TO.P,U4,1,OUT*%
%TO.N,+1V8*%
X142587500Y-106727500D03*
D18*
%TO.P,U4,2,GND*%
%TO.N,GND*%
X142587500Y-107377500D03*
D19*
%TO.P,U4,3,EN*%
%TO.N,+3V3*%
X143667500Y-107377500D03*
D20*
%TO.P,U4,4,IN*%
X143667500Y-106727500D03*
D21*
%TO.P,U4,5,EPAD*%
%TO.N,GND*%
X143127500Y-107052500D03*
%TD*%
D10*
%TO.P,C9,1*%
%TO.N,+3V3*%
X141910000Y-107000000D03*
%TO.P,C9,2*%
%TO.N,GND*%
X140890000Y-107000000D03*
%TD*%
D22*
%TO.P,U1,1,NC*%
%TO.N,unconnected-(U1-NC-Pad1)*%
X143900000Y-108149999D03*
%TO.P,U1,2,NC*%
%TO.N,unconnected-(U1-NC-Pad2)*%
X143500000Y-108149999D03*
%TO.P,U1,3,NC*%
%TO.N,unconnected-(U1-NC-Pad3)*%
X143100000Y-108149999D03*
%TO.P,U1,4,NC*%
%TO.N,unconnected-(U1-NC-Pad4)*%
X142700000Y-108149999D03*
%TO.P,U1,5,NC*%
%TO.N,unconnected-(U1-NC-Pad5)*%
X142300000Y-108149999D03*
%TO.P,U1,6,NC*%
%TO.N,unconnected-(U1-NC-Pad6)*%
X141900000Y-108149999D03*
D23*
%TO.P,U1,7,AUX_CL*%
%TO.N,unconnected-(U1-AUX_CL-Pad7)*%
X141400000Y-108649999D03*
%TO.P,U1,8,VDDIO*%
%TO.N,+1V8*%
X141400000Y-109049999D03*
%TO.P,U1,9,SDO/AD0*%
%TO.N,GND*%
X141400000Y-109449999D03*
%TO.P,U1,10,REGOUT*%
%TO.N,Net-(U1-REGOUT)*%
X141400000Y-109849999D03*
%TO.P,U1,11,FSYNC*%
%TO.N,unconnected-(U1-FSYNC-Pad11)*%
X141400000Y-110249999D03*
%TO.P,U1,12,INT1*%
%TO.N,unconnected-(U1-INT1-Pad12)*%
X141400000Y-110649999D03*
D22*
%TO.P,U1,13,VDD*%
%TO.N,+3V3*%
X141900000Y-111149999D03*
%TO.P,U1,14,NC*%
%TO.N,unconnected-(U1-NC-Pad14)*%
X142300000Y-111149999D03*
%TO.P,U1,15,NC*%
%TO.N,unconnected-(U1-NC-Pad15)*%
X142700000Y-111149999D03*
%TO.P,U1,16,NC*%
%TO.N,unconnected-(U1-NC-Pad16)*%
X143100000Y-111149999D03*
%TO.P,U1,17,NC*%
%TO.N,unconnected-(U1-NC-Pad17)*%
X143500000Y-111149999D03*
%TO.P,U1,18,GND*%
%TO.N,GND*%
X143900000Y-111149999D03*
D23*
%TO.P,U1,19,RESV*%
%TO.N,unconnected-(U1-RESV-Pad19)*%
X144400000Y-110649999D03*
%TO.P,U1,20,GND*%
%TO.N,GND*%
X144400000Y-110249999D03*
%TO.P,U1,21,AUX_DA*%
%TO.N,unconnected-(U1-AUX_DA-Pad21)*%
X144400000Y-109849999D03*
%TO.P,U1,22,~{CS}*%
%TO.N,+1V8*%
X144400000Y-109449999D03*
%TO.P,U1,23,SCL/SCLK*%
%TO.N,SCL*%
X144400000Y-109049999D03*
%TO.P,U1,24,SDA/SDI*%
%TO.N,SDA*%
X144400000Y-108649999D03*
%TD*%
D24*
%TO.N,*%
X138000000Y-103000000D03*
X150000000Y-115000000D03*
X150000000Y-103000000D03*
X138000000Y-115000000D03*
D25*
%TO.N,GND*%
X143127500Y-107052500D03*
X140900000Y-106100000D03*
X140550000Y-107850000D03*
X140900000Y-107000000D03*
X146150000Y-111150000D03*
X141400000Y-112000000D03*
X143850000Y-110350000D03*
X145000000Y-108000000D03*
X145800000Y-110450000D03*
X147100000Y-110450000D03*
X144500000Y-106300000D03*
X140550000Y-110550000D03*
X143650000Y-106100000D03*
%TO.N,+3V3*%
X145800000Y-109750000D03*
X145775000Y-108375000D03*
%TD*%
D26*
%TO.N,GND*%
X145124999Y-108124999D02*
X145124999Y-108375000D01*
X145000000Y-108000000D02*
X145124999Y-108124999D01*
X146130000Y-111137500D02*
X146137500Y-111137500D01*
X141855000Y-109605000D02*
X141855000Y-110388136D01*
X141855000Y-110388136D02*
X142071863Y-110604999D01*
X144400000Y-110249999D02*
X144125000Y-110249999D01*
X143667500Y-106077500D02*
X143667500Y-106082500D01*
X143667500Y-106082500D02*
X143650000Y-106100000D01*
X142802500Y-107377500D02*
X143127500Y-107052500D01*
X143900000Y-110474999D02*
X143900000Y-110400000D01*
X144500000Y-106270000D02*
X144500000Y-106300000D01*
X142071863Y-110604999D02*
X143770000Y-110604999D01*
X143770000Y-110604999D02*
X143900000Y-110474999D01*
X144125000Y-110249999D02*
X143900000Y-110474999D01*
X147075001Y-110425000D02*
X147075001Y-110425001D01*
X141420000Y-112000000D02*
X141400000Y-112000000D01*
X143900000Y-110400000D02*
X143850000Y-110350000D01*
X141699999Y-109449999D02*
X141855000Y-109605000D01*
X140549999Y-110580000D02*
X140549999Y-110550001D01*
X141400000Y-109449999D02*
X141699999Y-109449999D01*
X140890000Y-107000000D02*
X140900000Y-107000000D01*
X142587500Y-107377500D02*
X142802500Y-107377500D01*
X143900000Y-110474999D02*
X143900000Y-111149999D01*
X140549999Y-110550001D02*
X140550000Y-110550000D01*
X140890000Y-106099999D02*
X140899999Y-106099999D01*
X147075001Y-110425001D02*
X147100000Y-110450000D01*
X140899999Y-106099999D02*
X140900000Y-106100000D01*
X145775000Y-110425000D02*
X145800000Y-110450000D01*
X140550000Y-107870000D02*
X140550000Y-107850000D01*
X146137500Y-111137500D02*
X146150000Y-111150000D01*
%TO.N,+1V8*%
X142707500Y-106607500D02*
X142587500Y-106727500D01*
X141400000Y-109049999D02*
X140769999Y-109049999D01*
X142071863Y-108694999D02*
X141716863Y-109049999D01*
X140550000Y-108830000D02*
X141460000Y-107920000D01*
X141460000Y-106549999D02*
X141910000Y-106099999D01*
X141716863Y-109049999D02*
X141400000Y-109049999D01*
X143945000Y-109196655D02*
X143945000Y-108911862D01*
X143728137Y-108694999D02*
X142071863Y-108694999D01*
X143945000Y-108911862D02*
X143728137Y-108694999D01*
X140769999Y-109049999D02*
X140550000Y-108830000D01*
X144198344Y-109449999D02*
X143945000Y-109196655D01*
X144400000Y-109449999D02*
X144198344Y-109449999D01*
X141910000Y-106099999D02*
X142685001Y-106099999D01*
X141460000Y-107920000D02*
X141460000Y-106549999D01*
X142707500Y-106077500D02*
X142707500Y-106607500D01*
X142685001Y-106099999D02*
X142707500Y-106077500D01*
%TO.N,+3V3*%
X144500000Y-107230000D02*
X143815000Y-107230000D01*
X143667500Y-107377500D02*
X143667500Y-106727500D01*
X145800000Y-109995000D02*
X145420000Y-109995000D01*
X146070000Y-109995000D02*
X145800000Y-109995000D01*
X145840000Y-107000000D02*
X145390000Y-106550000D01*
X148000000Y-107370780D02*
X148000000Y-107499999D01*
X146425000Y-110350000D02*
X146070000Y-109995000D01*
X146425000Y-110425000D02*
X146425000Y-110350000D01*
X141910000Y-107300000D02*
X142297500Y-107687500D01*
X145390000Y-106550000D02*
X145890000Y-106050000D01*
X143357500Y-107687500D02*
X143667500Y-107377500D01*
X146679220Y-106050000D02*
X148000000Y-107370780D01*
X145124999Y-111092499D02*
X145170000Y-111137500D01*
X145180000Y-106550000D02*
X144500000Y-107230000D01*
X142380000Y-112000000D02*
X143651655Y-112000000D01*
X145420000Y-109995000D02*
X145124999Y-110290001D01*
X142297500Y-107687500D02*
X143357500Y-107687500D01*
X141920000Y-111169999D02*
X141900000Y-111149999D01*
X145390000Y-106550000D02*
X145180000Y-106550000D01*
X143651655Y-112000000D02*
X144514155Y-111137500D01*
X145775000Y-107565000D02*
X145840000Y-107500000D01*
X143815000Y-107230000D02*
X143667500Y-107377500D01*
X145775000Y-108375000D02*
X145775000Y-107565000D01*
X145840000Y-107500000D02*
X145840000Y-107000000D01*
X141900000Y-111520000D02*
X142380000Y-112000000D01*
X144514155Y-111137500D02*
X145170000Y-111137500D01*
X145890000Y-106050000D02*
X146679220Y-106050000D01*
X141900000Y-111149999D02*
X141900000Y-111520000D01*
X145124999Y-110290001D02*
X145124999Y-110425000D01*
X145800000Y-109995000D02*
X145800000Y-109750000D01*
X145124999Y-110425000D02*
X145124999Y-111092499D01*
%TO.N,Net-(U1-REGOUT)*%
X141400000Y-109849999D02*
X140779998Y-109849999D01*
X140779998Y-109849999D02*
X140549999Y-109620000D01*
%TO.N,SDA*%
X146679220Y-106550000D02*
X147310000Y-107180780D01*
X147310000Y-107180780D02*
X147310000Y-107809999D01*
X144675000Y-108649999D02*
X144875001Y-108850000D01*
X146300000Y-108850000D02*
X146425000Y-108725000D01*
X147310000Y-107809999D02*
X148000000Y-108499999D01*
X146410000Y-106550000D02*
X146679220Y-106550000D01*
X146425000Y-108375000D02*
X146410000Y-108360000D01*
X144875001Y-108850000D02*
X146300000Y-108850000D01*
X144400000Y-108649999D02*
X144675000Y-108649999D01*
X146425000Y-108725000D02*
X146425000Y-108375000D01*
X146410000Y-108360000D02*
X146410000Y-106550000D01*
%TO.N,SCL*%
X146860000Y-107500000D02*
X146860000Y-108159999D01*
X146860000Y-108159999D02*
X147075001Y-108375000D01*
X147075001Y-108575001D02*
X147075001Y-108375000D01*
X144400000Y-109049999D02*
X144500000Y-109149999D01*
X148000000Y-109500000D02*
X147075001Y-108575001D01*
X144500000Y-109149999D02*
X146375002Y-109149999D01*
X147075001Y-108450000D02*
X147075001Y-108375000D01*
X146375002Y-109149999D02*
X147075001Y-108450000D01*
X147150002Y-108449999D02*
X147075001Y-108525000D01*
%TD*%
%TA.AperFunction,Conductor*%
%TO.N,+3V3*%
G36*
X147057812Y-108899628D02*
G01*
X147068361Y-108908480D01*
X147434276Y-109274395D01*
X147457114Y-109323371D01*
X147454725Y-109350694D01*
X147453927Y-109353672D01*
X147434663Y-109499999D01*
X147434663Y-109500000D01*
X147453925Y-109646317D01*
X147453926Y-109646320D01*
X147489271Y-109731650D01*
X147493486Y-109741824D01*
X147499500Y-109772057D01*
X147499500Y-110002348D01*
X147481018Y-110053128D01*
X147434218Y-110080148D01*
X147381000Y-110070764D01*
X147368247Y-110060978D01*
X147365715Y-110059286D01*
X147312625Y-110023813D01*
X147312624Y-110023812D01*
X147265807Y-110014500D01*
X147128635Y-110014500D01*
X147077855Y-109996018D01*
X147054616Y-109963109D01*
X147043351Y-109932908D01*
X147043348Y-109932904D01*
X146957189Y-109817810D01*
X146842094Y-109731650D01*
X146842083Y-109731643D01*
X146707381Y-109681403D01*
X146707369Y-109681401D01*
X146647835Y-109675000D01*
X146600000Y-109675000D01*
X146600000Y-110521000D01*
X146581518Y-110571780D01*
X146534718Y-110598800D01*
X146521000Y-110600000D01*
X146274232Y-110600000D01*
X146223452Y-110581518D01*
X146196432Y-110534718D01*
X146196205Y-110508642D01*
X146205492Y-110450002D01*
X146205492Y-110449997D01*
X146188286Y-110341358D01*
X146198597Y-110288312D01*
X146240594Y-110254304D01*
X146246722Y-110253278D01*
X146250000Y-110250001D01*
X146250000Y-109675000D01*
X146202165Y-109675000D01*
X146142630Y-109681401D01*
X146142618Y-109681403D01*
X146007916Y-109731643D01*
X146007905Y-109731650D01*
X145892812Y-109817809D01*
X145838241Y-109890706D01*
X145793013Y-109920281D01*
X145739357Y-109913865D01*
X145711756Y-109890705D01*
X145657186Y-109817808D01*
X145542093Y-109731650D01*
X145542082Y-109731643D01*
X145407380Y-109681403D01*
X145407368Y-109681401D01*
X145347834Y-109675000D01*
X145299999Y-109675000D01*
X145299999Y-110250000D01*
X145333687Y-110250000D01*
X145384467Y-110268482D01*
X145411487Y-110315282D01*
X145411714Y-110341358D01*
X145394508Y-110449997D01*
X145394508Y-110450002D01*
X145414352Y-110575297D01*
X145416133Y-110580777D01*
X145420000Y-110605192D01*
X145420000Y-111942004D01*
X145566192Y-111899533D01*
X145566195Y-111899532D01*
X145705378Y-111817218D01*
X145705384Y-111817213D01*
X145819716Y-111702881D01*
X145819720Y-111702875D01*
X145854154Y-111644650D01*
X145895911Y-111610349D01*
X145931259Y-111606390D01*
X145945135Y-111608000D01*
X146314864Y-111607999D01*
X146339991Y-111605085D01*
X146442765Y-111559706D01*
X146522206Y-111480265D01*
X146567585Y-111377491D01*
X146570500Y-111352365D01*
X146570500Y-111254000D01*
X146588982Y-111203220D01*
X146635782Y-111176200D01*
X146645735Y-111175329D01*
X146645724Y-111175227D01*
X146645730Y-111175226D01*
X146645724Y-111175113D01*
X146647834Y-111175000D01*
X146707369Y-111168598D01*
X146707381Y-111168596D01*
X146842083Y-111118356D01*
X146842094Y-111118349D01*
X146957189Y-111032189D01*
X147043351Y-110917092D01*
X147043353Y-110917088D01*
X147048097Y-110904369D01*
X147083158Y-110863248D01*
X147109757Y-110853946D01*
X147151670Y-110847308D01*
X147220086Y-110836473D01*
X147232444Y-110835500D01*
X147265807Y-110835500D01*
X147312625Y-110826187D01*
X147365715Y-110790714D01*
X147365715Y-110790713D01*
X147372185Y-110786391D01*
X147373143Y-110787825D01*
X147413615Y-110768953D01*
X147465813Y-110782939D01*
X147496808Y-110827205D01*
X147499500Y-110847652D01*
X147499500Y-111496555D01*
X147499199Y-111503441D01*
X147484917Y-111666676D01*
X147482526Y-111680236D01*
X147441012Y-111835171D01*
X147436302Y-111848112D01*
X147368514Y-111993483D01*
X147361629Y-112005409D01*
X147269622Y-112136808D01*
X147260770Y-112147356D01*
X147147356Y-112260770D01*
X147136808Y-112269622D01*
X147005409Y-112361629D01*
X146993483Y-112368514D01*
X146848112Y-112436302D01*
X146835171Y-112441012D01*
X146680236Y-112482526D01*
X146666676Y-112484917D01*
X146524682Y-112497340D01*
X146503439Y-112499199D01*
X146496555Y-112499500D01*
X144546582Y-112499500D01*
X144537738Y-112499003D01*
X144524668Y-112497530D01*
X144500002Y-112494751D01*
X144499998Y-112494751D01*
X144475331Y-112497530D01*
X144462261Y-112499003D01*
X144453418Y-112499500D01*
X143546582Y-112499500D01*
X143537738Y-112499003D01*
X143524668Y-112497530D01*
X143500002Y-112494751D01*
X143499998Y-112494751D01*
X143475331Y-112497530D01*
X143462261Y-112499003D01*
X143453418Y-112499500D01*
X143195953Y-112499500D01*
X143145173Y-112481018D01*
X143118153Y-112434218D01*
X143120090Y-112398460D01*
X143157143Y-112270917D01*
X143157146Y-112270903D01*
X143158792Y-112250000D01*
X142209000Y-112250000D01*
X142158220Y-112231518D01*
X142131200Y-112184718D01*
X142130000Y-112171000D01*
X142130000Y-111662015D01*
X142148482Y-111611235D01*
X142195282Y-111584215D01*
X142224410Y-111584532D01*
X142229267Y-111585499D01*
X142370732Y-111585498D01*
X142432133Y-111573286D01*
X142446487Y-111563695D01*
X142456109Y-111557266D01*
X142508599Y-111544420D01*
X142543891Y-111557266D01*
X142567865Y-111573285D01*
X142575054Y-111576263D01*
X142574399Y-111577844D01*
X142612607Y-111601025D01*
X142630000Y-111650478D01*
X142630000Y-111750000D01*
X143158789Y-111750000D01*
X143157144Y-111729083D01*
X143157144Y-111729081D01*
X143142482Y-111678616D01*
X143146063Y-111624695D01*
X143183466Y-111585692D01*
X143202933Y-111579093D01*
X143232133Y-111573286D01*
X143246487Y-111563695D01*
X143256109Y-111557266D01*
X143308599Y-111544420D01*
X143343891Y-111557266D01*
X143367865Y-111573285D01*
X143367866Y-111573285D01*
X143367867Y-111573286D01*
X143429267Y-111585499D01*
X143570732Y-111585498D01*
X143632133Y-111573286D01*
X143646487Y-111563695D01*
X143656109Y-111557266D01*
X143708599Y-111544420D01*
X143743891Y-111557266D01*
X143767865Y-111573285D01*
X143767866Y-111573285D01*
X143767867Y-111573286D01*
X143829267Y-111585499D01*
X143970732Y-111585498D01*
X144032133Y-111573286D01*
X144101762Y-111526761D01*
X144148287Y-111457132D01*
X144160500Y-111395732D01*
X144160500Y-111387500D01*
X144391210Y-111387500D01*
X144392855Y-111408416D01*
X144392856Y-111408421D01*
X144437966Y-111563692D01*
X144437967Y-111563695D01*
X144520281Y-111702878D01*
X144520286Y-111702884D01*
X144634615Y-111817213D01*
X144634621Y-111817218D01*
X144773804Y-111899532D01*
X144773807Y-111899533D01*
X144920000Y-111942005D01*
X144920000Y-111387500D01*
X144391210Y-111387500D01*
X144160500Y-111387500D01*
X144160499Y-110989497D01*
X144178981Y-110938718D01*
X144225781Y-110911698D01*
X144239499Y-110910498D01*
X144645731Y-110910498D01*
X144645732Y-110910498D01*
X144707133Y-110898286D01*
X144707136Y-110898283D01*
X144714326Y-110895307D01*
X144715127Y-110897242D01*
X144747240Y-110887500D01*
X144920000Y-110887500D01*
X144920000Y-110347222D01*
X144938482Y-110296442D01*
X144943139Y-110291361D01*
X144949999Y-110284501D01*
X144949999Y-109675000D01*
X144901076Y-109675000D01*
X144850296Y-109656518D01*
X144823276Y-109609718D01*
X144823594Y-109580588D01*
X144828254Y-109557162D01*
X144835500Y-109520732D01*
X144835500Y-109469499D01*
X144853982Y-109418719D01*
X144900782Y-109391699D01*
X144914500Y-109390499D01*
X146422839Y-109390499D01*
X146422841Y-109390499D01*
X146511235Y-109353885D01*
X146956640Y-108908479D01*
X147005615Y-108885642D01*
X147057812Y-108899628D01*
G37*
%TD.AperFunction*%
%TA.AperFunction,Conductor*%
G36*
X141071132Y-110883764D02*
G01*
X141092865Y-110898285D01*
X141092866Y-110898285D01*
X141092867Y-110898286D01*
X141154267Y-110910499D01*
X141221001Y-110910498D01*
X141271779Y-110928980D01*
X141298800Y-110975779D01*
X141300000Y-110989498D01*
X141300000Y-111049999D01*
X141960500Y-111049999D01*
X142011280Y-111068481D01*
X142038300Y-111115281D01*
X142039500Y-111128997D01*
X142039501Y-111170997D01*
X142021020Y-111221778D01*
X141974221Y-111248798D01*
X141960501Y-111249999D01*
X141300000Y-111249999D01*
X141300000Y-111418057D01*
X141302850Y-111441797D01*
X141290552Y-111494419D01*
X141247307Y-111526824D01*
X141233518Y-111529688D01*
X141210009Y-111532415D01*
X141107235Y-111577794D01*
X141107229Y-111577798D01*
X141027798Y-111657229D01*
X141027794Y-111657235D01*
X140982415Y-111760009D01*
X140979500Y-111785133D01*
X140979500Y-112196905D01*
X140961018Y-112247685D01*
X140914218Y-112274705D01*
X140861000Y-112265321D01*
X140844639Y-112252766D01*
X140739229Y-112147356D01*
X140730377Y-112136808D01*
X140638370Y-112005409D01*
X140631488Y-111993488D01*
X140563695Y-111848107D01*
X140558989Y-111835177D01*
X140517471Y-111680230D01*
X140515083Y-111666681D01*
X140500801Y-111503440D01*
X140500500Y-111496555D01*
X140500500Y-111099499D01*
X140518982Y-111048719D01*
X140565782Y-111021699D01*
X140579500Y-111020499D01*
X140764857Y-111020499D01*
X140764863Y-111020499D01*
X140789990Y-111017585D01*
X140892764Y-110972206D01*
X140971381Y-110893588D01*
X141020356Y-110870751D01*
X141071132Y-110883764D01*
G37*
%TD.AperFunction*%
%TA.AperFunction,Conductor*%
G36*
X146061780Y-107268482D02*
G01*
X146088800Y-107315282D01*
X146090000Y-107329000D01*
X146090000Y-108100238D01*
X146089619Y-108107984D01*
X146089500Y-108109191D01*
X146089500Y-108284000D01*
X146071018Y-108334780D01*
X146024218Y-108361800D01*
X146010500Y-108363000D01*
X145950000Y-108363000D01*
X145950000Y-108471000D01*
X145931518Y-108521780D01*
X145884718Y-108548800D01*
X145871000Y-108550000D01*
X145679000Y-108550000D01*
X145628220Y-108531518D01*
X145601200Y-108484718D01*
X145600000Y-108471000D01*
X145600000Y-108347961D01*
X145590301Y-108327162D01*
X145590000Y-108320277D01*
X145590000Y-107329000D01*
X145608482Y-107278220D01*
X145655282Y-107251200D01*
X145669000Y-107250000D01*
X146011000Y-107250000D01*
X146061780Y-107268482D01*
G37*
%TD.AperFunction*%
%TA.AperFunction,Conductor*%
G36*
X144721780Y-106998482D02*
G01*
X144748800Y-107045282D01*
X144750000Y-107059000D01*
X144750000Y-107650885D01*
X144731518Y-107701665D01*
X144726861Y-107706746D01*
X144671950Y-107761656D01*
X144671948Y-107761659D01*
X144614354Y-107874693D01*
X144614353Y-107874697D01*
X144594508Y-107999997D01*
X144594508Y-108000002D01*
X144614353Y-108125302D01*
X144614354Y-108125306D01*
X144671948Y-108238340D01*
X144671950Y-108238343D01*
X144688245Y-108254638D01*
X144711083Y-108303614D01*
X144697097Y-108355812D01*
X144652831Y-108386807D01*
X144632384Y-108389499D01*
X144239499Y-108389499D01*
X144188719Y-108371017D01*
X144161699Y-108324217D01*
X144160499Y-108310499D01*
X144160499Y-108087207D01*
X144178981Y-108036427D01*
X144225781Y-108009407D01*
X144245695Y-108008450D01*
X144250000Y-108008788D01*
X144250000Y-107480000D01*
X143695495Y-107480000D01*
X143739354Y-107630968D01*
X143737125Y-107631615D01*
X143739822Y-107677020D01*
X143707603Y-107720403D01*
X143655035Y-107732926D01*
X143633888Y-107727438D01*
X143632137Y-107726713D01*
X143632133Y-107726712D01*
X143570733Y-107714499D01*
X143570731Y-107714499D01*
X143429271Y-107714499D01*
X143367867Y-107726712D01*
X143367866Y-107726712D01*
X143343889Y-107742733D01*
X143291398Y-107755576D01*
X143256111Y-107742733D01*
X143232133Y-107726712D01*
X143232132Y-107726711D01*
X143182945Y-107716928D01*
X143170733Y-107714499D01*
X143170732Y-107714499D01*
X143079896Y-107714499D01*
X143029116Y-107696017D01*
X143002096Y-107649217D01*
X143011480Y-107595999D01*
X143020757Y-107583120D01*
X143024043Y-107579412D01*
X143024043Y-107579409D01*
X143027440Y-107575576D01*
X143074947Y-107549822D01*
X143101983Y-107550479D01*
X143127500Y-107555556D01*
X143190123Y-107543098D01*
X143229814Y-107516578D01*
X143591578Y-107154814D01*
X143618098Y-107115123D01*
X143630556Y-107052500D01*
X143630555Y-107052499D01*
X143632074Y-107044868D01*
X143635454Y-107045540D01*
X143649038Y-107008220D01*
X143695838Y-106981200D01*
X143709556Y-106980000D01*
X144671000Y-106980000D01*
X144721780Y-106998482D01*
G37*
%TD.AperFunction*%
%TA.AperFunction,Conductor*%
G36*
X143358788Y-106501495D02*
G01*
X143457509Y-106545085D01*
X143482635Y-106548000D01*
X143776180Y-106547999D01*
X143826960Y-106566481D01*
X143853980Y-106613281D01*
X143844596Y-106666499D01*
X143832043Y-106682859D01*
X143820281Y-106694621D01*
X143737967Y-106833804D01*
X143737966Y-106833807D01*
X143716080Y-106909142D01*
X143684164Y-106952750D01*
X143631685Y-106965640D01*
X143584356Y-106942963D01*
X143271019Y-106629626D01*
X143248181Y-106580650D01*
X143262167Y-106528452D01*
X143306433Y-106497457D01*
X143358788Y-106501495D01*
G37*
%TD.AperFunction*%
%TA.AperFunction,Conductor*%
G36*
X144462261Y-105500996D02*
G01*
X144475331Y-105502469D01*
X144499998Y-105505249D01*
X144500000Y-105505249D01*
X144500002Y-105505249D01*
X144524668Y-105502469D01*
X144537738Y-105500996D01*
X144546582Y-105500500D01*
X145421119Y-105500500D01*
X145434108Y-105500500D01*
X146434108Y-105500500D01*
X146496555Y-105500500D01*
X146503440Y-105500801D01*
X146512459Y-105501590D01*
X146666681Y-105515083D01*
X146680230Y-105517471D01*
X146835177Y-105558989D01*
X146848107Y-105563695D01*
X146993488Y-105631488D01*
X147005405Y-105638367D01*
X147136808Y-105730377D01*
X147147356Y-105739229D01*
X147260770Y-105852643D01*
X147269622Y-105863191D01*
X147361629Y-105994590D01*
X147368513Y-106006515D01*
X147399221Y-106072367D01*
X147436302Y-106151887D01*
X147441012Y-106164828D01*
X147482526Y-106319763D01*
X147484917Y-106333323D01*
X147499199Y-106496558D01*
X147499500Y-106503444D01*
X147499500Y-106839439D01*
X147481018Y-106890219D01*
X147434218Y-106917239D01*
X147381000Y-106907855D01*
X147364639Y-106895300D01*
X146863638Y-106394299D01*
X146840800Y-106345323D01*
X146840499Y-106338438D01*
X146840499Y-106320883D01*
X146840498Y-106320871D01*
X146837634Y-106296173D01*
X146793010Y-106195109D01*
X146793007Y-106195106D01*
X146793005Y-106195103D01*
X146714896Y-106116994D01*
X146714890Y-106116989D01*
X146658450Y-106092068D01*
X146613827Y-106072366D01*
X146589123Y-106069500D01*
X146589122Y-106069500D01*
X146230883Y-106069500D01*
X146230871Y-106069501D01*
X146206173Y-106072366D01*
X146206170Y-106072367D01*
X146177981Y-106084813D01*
X146124062Y-106088415D01*
X146080443Y-106056515D01*
X146078075Y-106052757D01*
X146030735Y-105972710D01*
X146030733Y-105972707D01*
X145917292Y-105859266D01*
X145917289Y-105859264D01*
X145779194Y-105777595D01*
X145640000Y-105737154D01*
X145640000Y-106721000D01*
X145621518Y-106771780D01*
X145574718Y-106798800D01*
X145561000Y-106800000D01*
X145219000Y-106800000D01*
X145168220Y-106781518D01*
X145141200Y-106734718D01*
X145140000Y-106721000D01*
X145140000Y-105737154D01*
X145000805Y-105777595D01*
X144871209Y-105854238D01*
X144818092Y-105864178D01*
X144799088Y-105858509D01*
X144739991Y-105832415D01*
X144714865Y-105829500D01*
X144714864Y-105829500D01*
X144285141Y-105829500D01*
X144285129Y-105829501D01*
X144263149Y-105832050D01*
X144260009Y-105832415D01*
X144260007Y-105832415D01*
X144260003Y-105832417D01*
X144200745Y-105858581D01*
X144146826Y-105862184D01*
X144103206Y-105830285D01*
X144096570Y-105818226D01*
X144059706Y-105734735D01*
X144059704Y-105734733D01*
X144059701Y-105734729D01*
X143980270Y-105655298D01*
X143980267Y-105655296D01*
X143980265Y-105655294D01*
X143980260Y-105655292D01*
X143980259Y-105655291D01*
X143972281Y-105651768D01*
X143933293Y-105614349D01*
X143927479Y-105560624D01*
X143957560Y-105515731D01*
X144004191Y-105500500D01*
X144453418Y-105500500D01*
X144462261Y-105500996D01*
G37*
%TD.AperFunction*%
%TD*%
M02*
