%TF.GenerationSoftware,KiCad,Pcbnew,8.0.5*%
%TF.CreationDate,2024-12-23T12:59:27+11:00*%
%TF.ProjectId,Sensored,53656e73-6f72-4656-942e-6b696361645f,rev?*%
%TF.SameCoordinates,Original*%
%TF.FileFunction,Legend,Top*%
%TF.FilePolarity,Positive*%
%FSLAX46Y46*%
G04 Gerber Fmt 4.6, Leading zero omitted, Abs format (unit mm)*
G04 Created by KiCad (PCBNEW 8.0.5) date 2024-12-23 12:59:27*
%MOMM*%
%LPD*%
G01*
G04 APERTURE LIST*
%ADD10C,0.120000*%
%ADD11C,0.100000*%
G04 APERTURE END LIST*
D10*
%TO.C,C11*%
X141553641Y-105719999D02*
X141246359Y-105719999D01*
X141553641Y-106479999D02*
X141246359Y-106479999D01*
%TO.C,C4*%
X140189999Y-109992164D02*
X140189999Y-110207836D01*
X140909999Y-109992164D02*
X140909999Y-110207836D01*
D11*
%TO.C,U3*%
X144750000Y-110750000D02*
X144750000Y-110600000D01*
X144750000Y-110760000D02*
X144900000Y-110760000D01*
X147300000Y-108050000D02*
X147450000Y-108050000D01*
X147450000Y-108050000D02*
X147450000Y-108200000D01*
X147450000Y-110750000D02*
X147300000Y-110750000D01*
X147450000Y-110750000D02*
X147450000Y-110600000D01*
D10*
X144750000Y-108050000D02*
X144390000Y-108050000D01*
X144750000Y-107690000D01*
X144750000Y-108050000D01*
G36*
X144750000Y-108050000D02*
G01*
X144390000Y-108050000D01*
X144750000Y-107690000D01*
X144750000Y-108050000D01*
G37*
%TO.C,C3*%
X142007836Y-111640000D02*
X141792164Y-111640000D01*
X142007836Y-112360000D02*
X141792164Y-112360000D01*
%TO.C,R1*%
X146196359Y-107120000D02*
X146503641Y-107120000D01*
X146196359Y-107880000D02*
X146503641Y-107880000D01*
%TO.C,C1*%
X140190000Y-108242164D02*
X140190000Y-108457836D01*
X140910000Y-108242164D02*
X140910000Y-108457836D01*
%TO.C,C6*%
X144140000Y-106642164D02*
X144140000Y-106857836D01*
X144860000Y-106642164D02*
X144860000Y-106857836D01*
%TO.C,C8*%
X145542164Y-110777500D02*
X145757836Y-110777500D01*
X145542164Y-111497500D02*
X145757836Y-111497500D01*
%TO.C,C13*%
X143079664Y-105717500D02*
X143295336Y-105717500D01*
X143079664Y-106437500D02*
X143295336Y-106437500D01*
%TO.C,R2*%
X145746359Y-106170000D02*
X146053641Y-106170000D01*
X145746359Y-106930000D02*
X146053641Y-106930000D01*
%TO.C,U4*%
X143627500Y-106342500D02*
X142627500Y-106342500D01*
X143627500Y-107762500D02*
X142627500Y-107762500D01*
X142287500Y-106412500D02*
X142007500Y-106412500D01*
X142287500Y-106132500D01*
X142287500Y-106412500D01*
G36*
X142287500Y-106412500D02*
G01*
X142007500Y-106412500D01*
X142287500Y-106132500D01*
X142287500Y-106412500D01*
G37*
%TO.C,C9*%
X141553641Y-106620000D02*
X141246359Y-106620000D01*
X141553641Y-107380000D02*
X141246359Y-107380000D01*
%TO.C,U1*%
X141300000Y-108049999D02*
X141300000Y-108299999D01*
X141300000Y-108049999D02*
X141550000Y-108049999D01*
X141300000Y-111249999D02*
X141300000Y-110999999D01*
X141300000Y-111249999D02*
X141550000Y-111249999D01*
X144500000Y-111249999D02*
X144250000Y-111249999D01*
X144500000Y-111249999D02*
X144500000Y-110999999D01*
X144830000Y-108289999D02*
X144500000Y-108049999D01*
X144830001Y-107809999D01*
X144830000Y-108289999D01*
G36*
X144830000Y-108289999D02*
G01*
X144500000Y-108049999D01*
X144830001Y-107809999D01*
X144830000Y-108289999D01*
G37*
%TD*%
M02*
